<svg version="1.1" xmlns="http://www.w3.org/2000/svg" viewBox="-297.2 -1075.2 4293.4 1647.4"><desc>Created with Snap</desc><defs></defs><g><g><g transform="matrix(1,0,0,-1,0,0)"><path d="M28 57L42 113Q129 66 213 66Q273 66 315 90Q358 115 358 170Q358 219 322 259Q286 300 235 331Q184 362 133 394Q82 427 46 474Q10 522 10 580Q10 651 61 709Q112 768 184 768Q239 768 306 746Q374 724 420 702L408 662Q294 701 216 701Q168 701 134 670Q100 639 100 590Q100 553 119 523Q138 493 168 471Q199 449 236 428Q274 407 311 383Q348 359 378 331Q409 303 428 260Q447 218 447 165Q447 90 399 42Q351 -5 274 -5Q208 -5 133 13Q59 32 28 57ZM901 97L911 53Q867 37 780 17Q694 -2 652 -2Q609 -2 577 26Q545 55 529 99Q513 144 505 187Q498 231 498 273Q498 523 724 523Q778 523 819 488Q860 454 860 399Q860 369 843 346Q827 323 803 309Q780 296 743 285Q707 274 679 269Q651 264 612 258Q573 252 558 249Q559 220 561 198Q564 176 571 150Q579 125 591 108Q604 92 626 81Q648 70 678 70Q714 70 766 76Q818 83 858 90Q899 97 901 97ZM562 311Q698 350 785 393Q778 426 766 441Q754 456 730 456Q669 456 619 414Q570 372 562 311ZM1019 400L1023 4Q1008 -4 987 -4Q971 -4 951 1Q954 64 955 249Q956 434 963 523L1008 513L1011 457Q1064 513 1133 513Q1168 513 1189 508Q1210 503 1229 483Q1249 464 1259 432Q1269 400 1277 340Q1285 281 1288 201Q1292 122 1293 1Q1287 -1 1270 -1Q1234 -1 1214 8Q1210 24 1210 61Q1210 80 1211 132Q1213 185 1213 214Q1213 262 1209 298Q1206 334 1196 369Q1187 404 1167 423Q1148 442 1119 442Q1086 442 1067 437Q1049 432 1041 425Q1034 418 1019 400ZM1410 432L1390 483Q1416 509 1456 524Q1496 540 1535 540Q1704 540 1704 248Q1704 208 1699 130Q1695 52 1695 13Q1687 -18 1664 -18Q1646 -18 1631 0Q1616 18 1616 40Q1616 47 1617 50Q1555 -10 1485 -10Q1432 -10 1392 28Q1353 67 1353 122Q1353 215 1425 290Q1498 365 1590 365Q1594 365 1598 364Q1602 364 1607 363Q1613 362 1616 362Q1608 479 1523 479Q1473 479 1410 432ZM1619 119Q1621 189 1621 225Q1621 255 1619 309L1611 309Q1540 308 1481 256Q1423 204 1423 130Q1423 98 1442 79Q1462 60 1490 60Q1534 60 1619 119ZM1807 514L1853 504Q1861 422 1867 246Q1873 71 1875 29Q1866 -2 1840 -2Q1822 -2 1805 12Q1789 27 1785 48Q1787 89 1793 261Q1799 434 1807 514ZM1821 693Q1848 693 1866 669Q1884 646 1884 616Q1884 594 1873 580Q1863 567 1845 567Q1817 567 1801 590Q1785 613 1785 644Q1785 666 1794 679Q1804 693 1821 693ZM2271 516L2316 526Q2316 496 2317 479Q2323 260 2323 194Q2323 171 2324 122Q2325 73 2325 48Q2325 -7 2321 -47Q2318 -87 2306 -131Q2294 -174 2273 -202Q2253 -229 2215 -247Q2178 -265 2127 -265Q2083 -265 1972 -252Q1971 -241 1968 -228Q1966 -215 1966 -208Q1966 -193 1969 -184Q1977 -185 2031 -192Q2086 -199 2112 -199Q2181 -199 2218 -157Q2255 -115 2256 0Q2207 -28 2153 -28Q2108 -28 2074 -10Q2040 9 2020 37Q2000 66 1987 106Q1975 147 1970 185Q1966 223 1966 266Q1966 374 2013 447Q2061 520 2158 520Q2215 520 2270 485Q2271 495 2271 516ZM2259 97L2262 420Q2256 438 2224 448Q2193 459 2155 459Q2101 459 2071 409Q2041 360 2041 289Q2041 252 2045 216Q2049 181 2061 138Q2073 96 2100 70Q2127 44 2167 44Q2197 44 2222 58Q2247 73 2259 97ZM2737 381L2693 384Q2672 440 2622 440Q2600 440 2575 430Q2551 420 2535 409Q2519 399 2493 379Q2493 365 2492 288Q2492 211 2493 117Q2495 23 2497 16Q2488 -14 2462 -14Q2444 -14 2427 0Q2411 15 2407 36Q2426 357 2441 521L2486 511L2489 444Q2559 502 2609 502Q2664 502 2701 477Q2739 452 2739 404Q2739 389 2737 381ZM2815 432L2795 483Q2821 509 2861 524Q2901 540 2940 540Q3109 540 3109 248Q3109 208 3104 130Q3100 52 3100 13Q3092 -18 3069 -18Q3051 -18 3036 0Q3021 18 3021 40Q3021 47 3022 50Q2960 -10 2890 -10Q2837 -10 2797 28Q2758 67 2758 122Q2758 215 2830 290Q2903 365 2995 365Q2999 365 3003 364Q3007 364 3012 363Q3018 362 3021 362Q3013 479 2928 479Q2878 479 2815 432ZM3024 119Q3026 189 3026 225Q3026 255 3024 309L3016 309Q2945 308 2886 256Q2828 204 2828 130Q2828 98 2847 79Q2867 60 2895 60Q2939 60 3024 119ZM3463 396Q3467 340 3469 263Q3471 187 3472 109Q3474 31 3475 3Q3453 -3 3434 -3Q3419 -3 3406 2Q3403 41 3402 91Q3401 141 3401 179Q3401 218 3399 260Q3398 302 3394 332Q3390 362 3382 387Q3374 413 3359 427Q3345 441 3324 442Q3303 442 3290 433Q3277 424 3262 400L3262 4Q3247 -4 3226 -4Q3210 -4 3190 1Q3193 64 3194 249Q3195 434 3202 523L3247 513L3250 462Q3280 509 3326 509Q3394 509 3441 449Q3470 509 3535 509Q3561 509 3580 503Q3689 472 3689 224Q3689 188 3686 127Q3684 67 3684 46Q3684 18 3687 0Q3635 -14 3624 -14Q3614 -14 3610 -12Q3606 1 3606 36Q3606 58 3609 126Q3612 195 3612 234Q3612 442 3530 444Q3511 443 3497 432Q3483 422 3463 396Z" fill="#333" style=""></path></g></g></g></svg>